<svg xmlns="http://www.w3.org/2000/svg" version="1.1" xmlns:xlink="http://www.w3.org/1999/xlink" xmlns:svgjs="http://svgjs.com/svgjs" width="1440" height="560" preserveAspectRatio="none" viewBox="0 0 1440 560">
    <g mask="url(&quot;#SvgjsMask1096&quot;)" fill="none">
        <rect width="1440" height="560" x="0" y="0" fill="rgba(226, 242, 232, 1)"></rect>
        <path d="M0,394.522C73.035,395.376,130.764,338.565,192.611,299.709C255.139,260.425,339.049,235.698,363.633,166.066C388.204,96.471,328.865,27.168,314.384,-45.202C300.934,-112.417,315.807,-184.601,281.58,-243.991C243.788,-309.569,189.069,-376.22,114.906,-391.336C41.336,-406.331,-30.125,-359.825,-94.127,-320.566C-146.538,-288.417,-181.956,-238.519,-216.805,-187.862C-248.108,-142.359,-266.278,-92.63,-286.334,-41.169C-312.642,26.333,-372.811,91.493,-352.816,161.126C-332.99,230.171,-249.65,255.605,-189.738,295.238C-128.973,335.435,-72.852,393.67,0,394.522" fill="#71bf8e"></path>
        <path d="M1440 1158.5720000000001C1551.006 1150.28 1594.621 1006.374 1686.187 943.075 1773.242 882.894 1924.255 897.2149999999999 1961.411 798.121 1999.257 697.187 1889.325 601.9 1852.038 500.758 1823.74 424 1805.231 348.401 1768.6399999999999 275.232 1720.25 178.46800000000002 1697.9270000000001 56.153999999999996 1603.3890000000001 3.548000000000002 1506.016-50.63599999999997 1383.49-27.87900000000002 1275.871 1.0270000000000437 1166.528 30.395999999999958 1059.068 80.23500000000001 988.438 168.72000000000003 919.043 255.65699999999998 881.371 370.608 892.522 481.28499999999997 902.78 583.094 996.509 650.373 1045.99 739.938 1090.618 820.7180000000001 1105.734 914.504 1168.9850000000001 981.7080000000001 1244.446 1061.885 1330.203 1166.7730000000001 1440 1158.5720000000001" fill="#ffffff"></path>
    </g>
    <defs>
        <mask id="SvgjsMask1096">
            <rect width="1440" height="560" fill="#ffffff"></rect>
        </mask>
    </defs>
</svg>